<?xml version="1.0" encoding="utf-8"?>
<!-- Generator: Adobe Illustrator 24.1.2, SVG Export Plug-In . SVG Version: 6.00 Build 0)  -->
<svg version="1.1" id="Ebene_1" xmlns="http://www.w3.org/2000/svg" xmlns:xlink="http://www.w3.org/1999/xlink" x="0px" y="0px"
	 viewBox="0 0 841.9 595.3" style="enable-background:new 0 0 841.9 595.3;" xml:space="preserve">
<style type="text/css">
	.st0{fill:#A8112D;}
	.st1{fill:#FFFFFF;}
	.st2{fill:none;}
	.st3{fill:#153D7C;}
	.st4{fill:#8797BB;}
</style>
<rect x="404.8" y="384" class="st0" width="103.3" height="4.5"/>
<g>
	<polygon class="st1" points="141.3,187.6 141.3,363.2 165.7,377.8 190.2,375.1 190.6,392.7 217.4,408.7 371.8,387.4 371.8,278.6 
		343.3,259 371.8,254.8 371.8,210.1 343.3,193.6 322,197.3 318.4,179.2 293.1,164.6 	"/>
	<g>
		<polygon class="st2" points="166.2,202.6 166.2,270.1 190.8,284.5 190.8,214.8 246.1,207.1 224,194.4 		"/>
		<polygon class="st2" points="320.5,180.3 262.7,188.4 285.7,202 321.4,197.3 		"/>
		<polyline class="st2" points="165.3,309.6 165.3,377.6 191.3,374.2 191.3,323.6 164.1,309.2 		"/>
		<polygon class="st2" points="343.1,258.2 258,270.9 258,358.9 330.7,348.7 330.7,324.9 287.4,331.7 287.4,287.5 371.1,277.7 		"/>
		<g>
			<path class="st3" d="M163.4,200.1l0.1,72.2l29.7,17.2l-0.3-71.7L255,209l-30.2-17.5L163.4,200.1z M187.1,212.9l0.3,66.8L169,269
				L169,205l54.7-7.7l14.5,8.4L187.1,212.9z"/>
			<path class="st3" d="M375.2,276.4l0-1.3l-11.8-6.8l-13.1-7.5l24.7-3.4l0.1-49v0l-30.7-17.7l-20.2,2.8v0l0,0v-14.5l-14.2-8.2
				l-15-8.7l-154,21.7l-2.5,0.3v180.2l27.2,16.7l3.2-0.4v0l18.4-2.6l0,15.6l30.1,17.9l157.5-22.3l0.1-112.3
				C375.2,276.9,375.2,276.6,375.2,276.4z M363.7,275l-79.2,11.1l-0.1,49.4l44.2-6.6l0,17.8l-67.6,9.5l0.2-83l80.1-11.1L363.7,275z
				 M187.5,372.5l-18.4,2.6l0.1-60.1l18.4,10.4L187.5,372.5z M215.1,228.9l0,3.3l-0.1,0l0.1,0.1l-0.3,171.1l-21.7-12.9l0.1-68.5
				l-29.6-16.8l-0.1,67.9l-19.7-12.1l0.5-171.8L294,168.1l19,11l-58.7,8.3l30.5,17.5l58.5-8.3l20.3,11.7l-1.8,0.3L215.1,228.9z
				 M318.7,183.9v10.5l-32.8,4.6l-14.6-8.4L318.7,183.9z M368.9,384l-147.9,21l0.3-170.6l147.7-20.5l-0.1,38.2l-113.9,15.7
				l-0.2,95.5l80-11.2l0.1-30.3l-44.2,6.6l0.1-36.8l78.4-11L368.9,384z"/>
		</g>
	</g>
</g>
<g>
	<g>
		<path class="st3" d="M433.2,227.6V244c-4.2,3-8.8,4.4-13.9,4.4c-11,0-17.6-7.8-17.6-20.6c0-12.3,6.8-20.3,17.1-20.3
			c4.8,0,8.9,1.8,11.3,5c1.5,2.1,2.2,4.2,2.6,7.6h-5.4c-0.9-4.9-3.6-7.3-8.3-7.3c-6.7,0-10.8,5.7-10.8,15c0,9.5,4.1,15.2,11.1,15.2
			c3.1,0,6.1-0.9,8.8-2.5v-8.1h-8v-4.8H433.2z"/>
		<path class="st3" d="M447.4,208.1v22.9c0,4.9,0.2,6.3,1.1,8c1.2,2.5,4.1,4,7.7,4c4.2,0,7.2-1.9,8.2-5.2c0.4-1.4,0.5-2.7,0.5-6.7
			v-22.9h6.1v23c0,3.9-0.1,4.7-0.3,6.5c-0.9,6.6-6.5,10.7-14.6,10.7c-6.5,0-11.5-2.7-13.6-7.3c-0.7-1.5-1.1-3.3-1.2-5.6
			c-0.1-0.8-0.1-1.4-0.1-4.2v-23H447.4z"/>
		<path class="st3" d="M502.8,208.1v5.3h-10.4v34.2h-6.1v-34.2H476v-5.3H502.8z"/>
		<path class="st3" d="M530,224.5v5.3h-15.9v12.6h17.8v5.3H508v-39.5h23.4v5.3h-17.3v11.1H530z"/>
		<path class="st3" d="M545.7,208.1l17.3,30.2v-30.2h5.8v39.5h-6.3l-17.6-30.1v30.1h-5.8v-39.5H545.7z"/>
		<path class="st3" d="M588,208.1c5,0,7.2,0.2,9.4,0.9c3.8,1.4,6.1,4.7,6.1,8.9c0,4.5-2,7.1-6.5,8.5c5.9,1.4,8.6,4.6,8.6,9.9
			c0,4.8-2.8,8.8-7,10.2c-1.9,0.6-3.8,0.9-6.9,0.9c-1.1,0.1-1.9,0.1-4.6,0.1H579v-39.5H588z M588.5,224.6c3.2,0,4.9-0.2,6.3-0.9
			c1.7-0.8,2.7-2.7,2.7-4.9c0-2.2-1.1-4.1-2.9-4.9c-1.4-0.5-2.8-0.7-6.5-0.7H585v11.4H588.5z M588.6,242.6c4.4,0,6.1-0.2,7.6-0.9
			c1.9-0.8,3-3,3-5.7c0-2.8-1.4-4.9-3.7-5.8c-1.6-0.6-3-0.7-6.9-0.7H585v13.1H588.6z"/>
		<path class="st3" d="M635,224.5v5.3h-15.9v12.6h17.8v5.3H613v-39.5h23.4v5.3h-17.3v11.1H635z"/>
		<path class="st3" d="M652.6,208.1c6.6,0,9.1,0.4,11.7,1.6c3.8,1.8,6,5.6,6,10.2c0,5.1-2.6,8.8-7.5,10.8l9.7,16.9h-7.2l-8.9-15.9
			h-6.1v15.9h-6.1v-39.5H652.6z M652.9,226.5c4.3,0,5.6-0.1,7.2-0.7c2.4-0.9,3.8-3.1,3.8-5.9c0-2.6-1.1-4.6-3.1-5.5
			c-1.7-0.8-3-1-8.2-1h-2.4v13.1H652.9z"/>
		<path class="st3" d="M707.3,227.6V244c-4.2,3-8.8,4.4-13.9,4.4c-11,0-17.6-7.8-17.6-20.6c0-12.3,6.8-20.3,17.1-20.3
			c4.8,0,8.9,1.8,11.3,5c1.5,2.1,2.2,4.2,2.6,7.6h-5.4c-0.9-4.9-3.6-7.3-8.3-7.3c-6.7,0-10.8,5.7-10.8,15c0,9.5,4.1,15.2,11.1,15.2
			c3.1,0,6.1-0.9,8.8-2.5v-8.1h-8v-4.8H707.3z"/>
	</g>
	<g>
		<path class="st3" d="M428.2,347.4v-16.3h6.1v39.5h-6.1v-18.1h-17.1v18.1h-6.1v-39.5h6.1v16.3H428.2z"/>
		<path class="st3" d="M449.7,331.1V354c0,4.9,0.2,6.3,1.1,8c1.2,2.5,4.1,4,7.7,4c4.2,0,7.2-1.9,8.2-5.2c0.4-1.4,0.5-2.7,0.5-6.7
			v-22.9h6.1v23c0,3.9-0.1,4.7-0.3,6.5c-0.9,6.6-6.5,10.7-14.6,10.7c-6.5,0-11.5-2.7-13.6-7.3c-0.7-1.5-1.1-3.3-1.2-5.6
			c-0.1-0.8-0.1-1.4-0.1-4.2v-23H449.7z"/>
		<path class="st3" d="M491.6,331.1c5,0,7.2,0.2,9.4,0.9c3.8,1.4,6.1,4.7,6.1,8.9c0,4.5-2,7.1-6.5,8.5c5.9,1.4,8.6,4.6,8.6,9.9
			c0,4.8-2.8,8.8-7,10.2c-1.9,0.6-3.8,0.9-6.9,0.9c-1.1,0.1-1.9,0.1-4.6,0.1h-8.2v-39.5H491.6z M492.1,347.5c3.2,0,4.9-0.2,6.3-0.9
			c1.7-0.8,2.7-2.7,2.7-4.9c0-2.2-1.1-4.1-2.9-4.9c-1.4-0.5-2.8-0.7-6.5-0.7h-3.1v11.4H492.1z M492.3,365.5c4.4,0,6.1-0.2,7.6-0.9
			c1.9-0.8,3-3,3-5.7c0-2.8-1.4-4.9-3.7-5.8c-1.6-0.6-3-0.7-6.9-0.7h-3.8v13.1H492.3z"/>
	</g>
	<g>
		<path class="st4" d="M418.4,258.8v19.1c3.2-2.9,6.6-4.1,11.3-4.1c5.5,0,9.7,2,12.2,5.7c1.8,2.6,2.3,5.1,2.3,11.8V314h-14.1v-20.4
			c0-3.5-0.2-5-0.7-6.1c-0.9-1.9-2.6-2.8-4.9-2.8c-2.4,0-4.4,1.3-5.4,3.4c-0.6,1.3-0.8,3.1-0.8,6.1V314h-14.1v-55.2H418.4z"/>
		<path class="st4" d="M464,297.4c0.2,4.9,3.1,7.6,8.2,7.6c3.6,0,5.6-1.1,7.1-3.6l12.7,0.4c-2.3,8.3-9.7,13.1-20,13.1
			c-6.5,0-11.1-1.4-14.9-4.5c-4.5-3.7-7-9.4-7-16c0-12.4,8.8-20.8,21.6-20.8c12.7,0,20.8,8.1,20.8,20.8c0,0.8,0,1.7-0.1,2.9H464z
			 M478.2,288.9c-0.5-4.1-2.6-5.9-6.7-5.9c-4,0-6.3,1.9-7.2,5.9H478.2z"/>
		<path class="st4" d="M497.8,286.9c0.4-5,1.8-7.6,5-9.8c3.1-2.2,8.2-3.4,14.1-3.4c7.4,0,13,1.8,15.7,5.2c1.8,2.3,2.5,5,2.5,10.7
			v14.9c0,5,0.4,6.7,2.2,9.5h-13.7c-0.4-1.9-0.4-2.4-0.6-4.1c-3.6,3.6-6.9,5-12,5c-9.3,0-15.2-4.2-15.2-11.1
			c0-5.5,3.6-9.3,10.9-11.6c3.2-1,7-1.7,14.8-2.8c0-4.8-1-6-5.1-6c-3.4,0-5,1.1-5.3,3.6H497.8z M521.7,297.1
			c-5.3,0.5-7.3,0.8-8.9,1.4c-1.9,0.7-3,1.8-3,3.2c0,2.2,1.9,3.6,5.1,3.6c4.7,0,6.7-2.1,6.7-7V297.1z"/>
		<path class="st4" d="M557.8,258.8V314h-14.1v-55.2H557.8z"/>
		<path class="st4" d="M591.1,274.7v9.7h-8.5l-0.1,13.3v0.9c0,4.6,0.6,5.6,3.2,5.6c1.6,0,3-0.4,6.5-2v10.4c-3.9,1.7-7.2,2.3-11,2.3
			c-5.3,0-9.3-1.9-11.3-5.2c-1.3-2.2-1.7-4.6-1.6-10.4l0.1-15h-6v-9.7h6.5l0.1-10.8h13.7l-0.1,10.8H591.1z"/>
		<path class="st4" d="M612.4,258.8v19.1c3.2-2.9,6.6-4.1,11.3-4.1c5.5,0,9.7,2,12.2,5.7c1.8,2.6,2.3,5.1,2.3,11.8V314h-14.1v-20.4
			c0-3.5-0.2-5-0.7-6.1c-0.9-1.9-2.6-2.8-4.9-2.8c-2.4,0-4.4,1.3-5.4,3.4c-0.6,1.3-0.8,3.1-0.8,6.1V314h-14.1v-55.2H612.4z"/>
	</g>
</g>
</svg>
